<svg width="93" height="93" viewBox="0 0 93 93" fill="none" xmlns="http://www.w3.org/2000/svg">
<path d="M31.5543 66.2642C27.2007 63.4552 27.0574 58.2088 27.0531 57.7937V50.2759C24.0142 53.3446 20.9752 56.4133 17.9363 59.482C14.9488 62.2918 14.0784 66.7118 15.7741 70.4222C17.497 74.193 21.506 76.4334 25.6438 75.9275H55.8084C56.8004 75.7849 59.9528 75.2046 62.6318 72.4694C65.3486 69.6959 65.8446 66.4768 65.9584 65.4892C65.973 57.9689 65.9872 50.4483 66.0018 42.928C58.5007 50.43 50.9997 57.9323 43.4986 65.4343C39.9376 68.2506 35.1016 68.5526 31.5543 66.2638V66.2642Z" fill="#C37F38"/>
<path d="M77.642 23.8549C76.3434 19.9579 72.102 17.149 67.0589 17.0017C57.2121 17.1276 47.3652 17.2534 37.5184 17.3793C36.5912 17.471 33.162 17.9221 30.3174 20.8349C27.572 23.6463 27.143 26.9366 27.0531 27.8889V50.2759C34.2702 42.9881 41.4873 35.7003 48.7041 28.4125C51.7161 25.4464 56.2514 24.633 60.0656 26.3653C63.7574 28.042 66.1085 31.8024 66.0151 35.8903C66.0105 38.2361 66.0062 40.5822 66.0015 42.9279L74.4385 34.4897C75.1608 33.9076 76.5136 32.6545 77.3658 30.6005C77.4476 30.4033 78.7428 27.1586 77.642 23.8546V23.8549Z" fill="#F7C189"/>
<path d="M60.0656 26.3653C56.2517 24.633 51.7161 25.4464 48.7041 28.4125C41.487 35.7003 34.2699 42.9881 27.0531 50.2759V57.7937C27.0574 58.2088 27.2007 63.4552 31.5543 66.2641C35.1016 68.5529 39.9376 68.2509 43.4986 65.4346C50.9997 57.9326 58.5007 50.4303 66.0018 42.9283C66.0065 40.5825 66.0108 38.2364 66.0155 35.8907C66.1088 31.8027 63.7577 28.0424 60.0659 26.3656L60.0656 26.3653Z" fill="#DFA160"/>
</svg>